<svg width="512" height="512" viewBox="0 0 512 512" fill="none" xmlns="http://www.w3.org/2000/svg">
<rect width="512" height="512" fill="url(#paint0_linear)"/>
<path d="M421.624 402.384L421.749 402.334C421.749 402.334 332.574 311.834 323.824 303.084C318.4 301.485 286.675 287.534 286.125 261.309C299.663 245.797 319.35 230.897 348.424 230.603C348.474 230.578 348.624 230.566 348.7 230.566C361.85 230.922 375.125 226.559 385.688 217.328C386.424 216.679 388.162 214.91 388.162 214.91L460.8 123.367L452.075 114.61L363.213 208.691L352.726 198.173L444.188 106.717L436.5 99.073L344.5 191.092L335.799 182.385L427.811 90.3661L419.35 81.9217L327.338 173.929L317.025 163.635L412 74.5349L404.024 66.5597L316.5 134.747C316.5 134.747 313.326 137.422 312.225 138.535C300.212 150.542 295.049 166.835 296.775 182.529C295.562 202.435 289.126 217.216 280.776 228.454C117.606 68.8222 56.0749 85.897 56.0749 85.897L51.2002 90.8405C51.2002 90.8405 160.919 200.859 228.712 268.784C204.925 292.597 90.2503 407.272 90.2503 407.272L90.2622 407.297C90.1621 407.396 90.0373 407.433 89.919 407.558C81.7253 415.758 81.7565 429.033 89.9319 437.22C98.1127 445.408 111.426 445.408 119.588 437.245C119.719 437.12 119.757 436.983 119.832 436.907L119.857 436.932C119.857 436.932 234.676 322.146 258.325 298.508C270.724 310.921 279 319.208 280.625 320.833C290.675 330.934 391.85 432.108 391.85 432.108H391.975C391.975 432.233 392.087 432.346 392.2 432.396C400.375 440.633 413.8 440.633 421.962 432.396C430.249 424.233 430.249 410.858 421.962 402.634C421.862 402.508 421.749 402.459 421.624 402.384Z" fill="white"/>
<defs>
<linearGradient id="paint0_linear" x1="256" y1="0" x2="256" y2="512" gradientUnits="userSpaceOnUse">
<stop stop-color="#007C57"/>
<stop offset="1" stop-color="#004732"/>
</linearGradient>
</defs>
</svg>
